<svg height="2.7cm" viewBox="0 0 70.87 76.54" width="2.5cm" xmlns="http://www.w3.org/2000/svg"><path d="m65.89 39a30.44 30.44 0 0 1 -8.83 21.45c-.69.69-1.41 1.36-2.15 2a29.7 29.7 0 0 1 -4.34 3c-.76.44-1.55.85-2.36 1.22a30.46 30.46 0 0 1 -43.21-27.67c0-.52 0-1.05 0-1.57v-.06a30.44 30.44 0 0 1 13.15-23.46 4.85 4.85 0 0 1 .5-.34 30.47 30.47 0 0 1 33.57 0 28.83 28.83 0 0 1 2.69 2 30.41 30.41 0 0 1 10.98 23.43z" fill="#f6bb42"/><path d="m59.79 42.18-4.88-5.9h-4.34v29.14a29.7 29.7 0 0 0 4.34-3c.74-.61 1.46-1.28 2.15-2a30.47 30.47 0 0 0 5.41-7.42v-3.7a10.79 10.79 0 0 0 -2.68-7.12z" fill="#fec9a3"/><path d="m18.15 61.14v2.93a30.45 30.45 0 0 0 30.06 2.57c.81-.37 1.6-.78 2.36-1.22a29.7 29.7 0 0 0 4.34-3v-1.28z"/><path d="m50.58 7.09h-28.11a4.32 4.32 0 0 0 -4.33 4.32v2.16h36.76v-2.16a4.32 4.32 0 0 0 -4.32-4.32zm0 0"/><path d="m18.14 13.57h36.76v47.57h-36.76z" fill="#d9dadf"/><path d="m18.14 56.82v5.43h36.76v-42.19zm0 0" fill="#f2f2f7"/><circle cx="36.54" cy="35.89" fill="#4d4d4d" r="12.37"/><path d="m48.91 35.89a12.37 12.37 0 0 1 -12.37 12.37v-24.74a12.37 12.37 0 0 1 12.37 12.37z"/><path d="m43 33.32-5.76 5.76-1.24 1.25a1.51 1.51 0 0 1 -1.06.44 1.53 1.53 0 0 1 -1.07-.44l-2.67-2.68a1.51 1.51 0 0 1 2.13-2.13l1.61 1.61 5.94-5.94a1.52 1.52 0 0 1 2.13 0 1.5 1.5 0 0 1 0 2.13zm0 0" fill="#fff"/><path d="m50.57 46-3.57-3.54-1.31-1.32a3.82 3.82 0 0 0 -5.4 5.4l.83.84 8.36 8.36-.89 1.56a10.2 10.2 0 0 0 -.4 9.34c.81-.37 1.6-.78 2.36-1.22a29.7 29.7 0 0 0 4.34-3c.74-.61 1.46-1.28 2.15-2v-7.92z" fill="#fec9a3"/></svg>