<svg height="2.7cm" viewBox="0 0 70.87 76.54" width="2.5cm" xmlns="http://www.w3.org/2000/svg"><path d="m65.83 39a30.31 30.31 0 0 1 -7.7 20.23c-.35.42-.74.82-1.13 1.22-.59.59-1.19 1.16-1.82 1.68l-.17.14c0 .06-.11.1-.16.15a27.46 27.46 0 0 1 -2.75 2c-.52.34-1 .67-1.58 1l-.86.47c-.33.18-.66.35-1 .5l-.51.25c-.43.2-.85.38-1.28.54-.6.26-1.22.49-1.84.7a30.41 30.41 0 0 1 -19.38 0c-.63-.2-1.24-.43-1.85-.69s-1.19-.5-1.78-.79c-.33-.16-.67-.33-1-.51a28.29 28.29 0 0 1 -2.47-1.48l-.46-.31a26.75 26.75 0 0 1 -2.35-1.81 1.06 1.06 0 0 1 -.21-.18 29.07 29.07 0 0 1 -2.92-2.85 30.32 30.32 0 0 1 -7.7-20.26c0-.52 0-1.05 0-1.57v-.06c0-.28 0-.55 0-.81h.09a9.09 9.09 0 0 1 .09-.94 30 30 0 0 1 3.15-10.49c.44-.85.92-1.67 1.42-2.47a0 0 0 0 0 0 0c.44-.69.91-1.34 1.4-2l.41-.52c.36-.45.72-.89 1.1-1.31s.85-.93 1.29-1.38a30.63 30.63 0 0 1 4.14-3.45l.08-.05a4.85 4.85 0 0 1 .5-.34 27.56 27.56 0 0 1 3.43-2l.42-.21c.55-.26 1.09-.5 1.65-.71a26.66 26.66 0 0 1 3.79-1.24 29.08 29.08 0 0 1 4-.73 31.13 31.13 0 0 1 7.46 0 29.3 29.3 0 0 1 3.55.68l.81.21a31.88 31.88 0 0 1 3.45 1.2l1.55.7h.06a27.75 27.75 0 0 1 3.44 2c.19.12.37.25.55.39s.54.36.8.56c.46.33.9.69 1.34 1.05l.43.38a19.51 19.51 0 0 1 1.55 1.46 18.23 18.23 0 0 1 1.29 1.35c.39.43.76.88 1.11 1.33a4.34 4.34 0 0 1 .34.44 28.53 28.53 0 0 1 2.86 4.5 29.84 29.84 0 0 1 3.2 10.55c0 .3.07.61.09.91.05.93.08 1.74.08 2.57z" fill="#f6bb42"/><path d="m65.64 35.62-5.13-3.19-1.81-1.13-1-.63-3.57 13.23 1.44-.9.41-.27 2.19-1.38 7.56-4.78c-.02-.34-.05-.65-.09-.95z" fill="#edab37"/><path d="m13.05 30.67-1.05.67-1.81 1.12-5.08 3.15a9.09 9.09 0 0 0 -.09.94l7.47 4.74 2.25 1.43.35.22 1.5 1z" fill="#edab37"/><path d="m10.18 32.46 2.31 8.83 4.45 17h2.12l-2.39-9.43-1.57-5.92-3.1-11.6-2.34-8.68v-.05a1.64 1.64 0 0 0 .56-.24l.24-.21a1.92 1.92 0 0 0 .6-1.54 1.44 1.44 0 0 0 -.06-.4l.47-.12 10.53-2.84 2-.52 5.16-1.39a2 2 0 0 0 2.42 1.4l.79 2.95 2 7.25v.15l1 3.57v.12l3.22 12.21.41 1.48 1.87 7.23.29 1.11.16.63 1.24 4.81h2l-.9-3.26-.16-.57-1-3.64-1.9-7.23-3.32-12.81-1-3.65v-.11l-.95-3.64-1.23-4.69-1.65-6.24-8.45 2.26-2 .54-8.1 2.17-7.18 1.93 1.52 5.81z"/><path d="m12 31.34 3.11 11.6 1.58 5.89 2.39 9.43h23.46l-1.24-4.81-.16-.63-.29-1.11-1.85-7.23-.41-1.48-3.25-12.21v-.12l-1-3.57v-.15l-2-7.25-.79-2.95a2 2 0 0 1 -2.42-1.4l-5.13 1.39-2 .52-10.49 2.82-.51.12a1.44 1.44 0 0 1 .06.4 1.92 1.92 0 0 1 -.6 1.54 2.41 2.41 0 0 1 -.24.21 1.64 1.64 0 0 1 -.56.24z" fill="#4d4d4d"/><path d="m28.12 58.26 1.23-4.76.18-.67.3-1.15 1.85-7.2.39-1.48 3.27-12.16v-.12l1-3.57v-.12l2-7.35.77-2.88a1.17 1.17 0 0 0 .26 0 1.79 1.79 0 0 0 .46 0l.43-.1a1.92 1.92 0 0 0 .29-.14 2.13 2.13 0 0 0 .49-.36s0 0 0 0a1.6 1.6 0 0 0 .3-.42 2 2 0 0 0 .17-.42l5.16 1.39 2 .52 10.57 2.83.39.1a2.15 2.15 0 0 0 -.05.34 1.93 1.93 0 0 0 1.42 2.07l-2.3 8.69-3.13 11.7-1.57 5.83-2.41 9.43h2.13l4.45-16.92 2.34-8.91 1.93-7.36 1.56-5.75-7.11-1.9-8.17-2.18-2-.54-8.46-2.26-1.64 6.22-1.24 4.71-1 3.62v.13l-1 3.65-3.38 12.75-1.9 7.2-1 3.68-.1.6-.86 3.24z"/><path d="m51.59 58.26 2.41-9.43 1.57-5.83 3.13-11.7 2.3-8.69a1.93 1.93 0 0 1 -1.44-2.06 2.15 2.15 0 0 1 .05-.34l-.39-.1-10.56-2.85-2-.52-5.16-1.39a2 2 0 0 1 -.17.42 1.6 1.6 0 0 1 -.3.42s0 0 0 0a1.88 1.88 0 0 1 -.49.36 1.92 1.92 0 0 1 -.29.14l-.43.1a1.79 1.79 0 0 1 -.46 0l-.26-.05-.77 2.88-2 7.35v.12l-1 3.57v.12l-3.26 12.22-.39 1.53-1.85 7.2-.3 1.15-.18.67-1.23 4.76z" fill="#4d4d4d"/><path d="m46.69 58.26v-44.86a2 2 0 0 1 -2-2h-18.69a2 2 0 0 1 -2 2v44.86z" fill="#4d4d4d"/><circle cx="35.39" cy="22.78" r="4.31"/><circle cx="35.39" cy="52.88" r="4.31"/><rect height="14.35" rx="6.46" width="16.19" x="27.24" y="30.67"/><g fill="#7eaf3e"><path d="m30.4 64.69a.5.5 0 0 1 -.49.5.49.49 0 0 1 -.49-.49.49.49 0 1 1 1 0zm0 0"/><path d="m30.4 62.72a.5.5 0 0 1 -.49.5.49.49 0 0 1 -.49-.49.49.49 0 1 1 1 0zm0 0"/><path d="m30.4 60.74a.49.49 0 0 1 -.49.5.48.48 0 0 1 -.49-.48.49.49 0 0 1 1 0zm0 0"/><path d="m30.4 58.77a.5.5 0 0 1 -.49.5.49.49 0 0 1 -.49-.49.49.49 0 0 1 1 0zm0 0"/><path d="m30.4 55.81c0 .27-.22 1.49-.49 1.49s-.49-1.21-.49-1.48a.49.49 0 0 1 1 0zm0 0"/><path d="m30.4 53.84a.49.49 0 0 1 -.49.49.48.48 0 0 1 -.49-.48.49.49 0 1 1 1 0zm0 0"/></g><path d="m35.34 65.71v-4.94a2.47 2.47 0 0 1 0 4.94zm0 0" fill="#a0d468"/><path d="m35.34 65.71a2.47 2.47 0 0 1 0-4.94zm0 0" fill="#a0d468"/><path d="m32.87 55.34h4.93c0 1.37-1.1 3.46-2.46 3.46s-2.47-2.09-2.47-3.46zm0 0" fill="#a0d468"/><path d="m35.34 52.88a2.46 2.46 0 0 1 2.46 2.46h-4.93a2.46 2.46 0 0 1 2.47-2.46zm0 0" fill="#a0d468"/><path d="m24 58.26v-44.85a2 2 0 0 0 2-2h18.71a2 2 0 0 0 2 2v44.85h2v-48.8h-26.71v48.8z"/><path d="m38.3 63.24a3 3 0 1 1 -3-3 3 3 0 0 1 3 3zm-4.94 0a2 2 0 1 0 2-2 2 2 0 0 0 -2 2zm0 0" fill="#7eaf3e"/><path d="m38.3 55.34c0 1.64-1.33 3.95-3 3.95s-3-2.31-3-3.95a3 3 0 1 1 5.92 0zm-4.94 0c0 1.09.89 3 2 3s2-1.88 2-3a2 2 0 0 0 -4 0zm0 0" fill="#7eaf3e"/><path d="m38.3 55.34a.5.5 0 0 1 -.5.5h-4.93a.5.5 0 0 1 0-1h4.93a.49.49 0 0 1 .5.49zm0 0" fill="#7eaf3e"/><path d="m35.83 60.77v4.94a.5.5 0 0 1 -1 0v-4.94a.5.5 0 0 1 1 0zm0 0" fill="#7eaf3e"/><path d="m65.73 36.55-7.56 4.78-2.17 1.39-.41.27-1.44.91-4.38 2.79-1.09.61-2 1.12-4.13 2.33-1.7 1-.76.42-.42.24 1.62 1 2.37 1.59 3 1.95 2 1.27 2.53 1.64 1.81 1.14 2 1.29.17-.14c.63-.52 1.23-1.09 1.82-1.68.39-.4.78-.8 1.13-1.22a30.31 30.31 0 0 0 7.71-20.25c0-.83-.03-1.64-.1-2.45z" fill="#f6bb42"/><path d="m30.61 52.12-.78-.44-1.7-1-4.13-2.3-2-1.12-1-.57-4.4-2.79-1.5-1-.35-.22-2.25-1.39-7.5-4.74v.81.06 1.57a30.32 30.32 0 0 0 7.7 20.24 29.07 29.07 0 0 0 2.92 2.85 1.06 1.06 0 0 0 .21.18l1.85-1.26 1.81-1.17 2.51-1.61 2-1.22 3-2 2.35-1.52 1.73-1.11z" fill="#f6bb42"/><path d="m53.07 60.72-1.8-1.19-2.61-1.73-2-1.3-3.16-2.11-2.36-1.57-1-.69-.54-.35-4.21-2.78h-.06l-4 2.67-.64.43-1.08.71-2.45 1.59-3.16 2.1-2 1.3-2.6 1.73-1.8 1.2-2.07 1.35a1.06 1.06 0 0 0 .21.18 26.75 26.75 0 0 0 2.35 1.81l.46.31a28.29 28.29 0 0 0 2.45 1.48c.33.18.67.35 1 .51.59.29 1.18.56 1.78.79s1.22.49 1.85.69a30.41 30.41 0 0 0 19.38 0c.62-.21 1.24-.44 1.84-.7.43-.16.85-.34 1.28-.54l.51-.25c.33-.15.66-.32 1-.5l.86-.47c.55-.31 1.06-.64 1.58-1a27.46 27.46 0 0 0 2.75-2s.11-.09.16-.15l.17-.14z" fill="#ffce54"/></svg>