<svg height="2.7cm" viewBox="0 0 70.87 76.54" width="2.5cm" xmlns="http://www.w3.org/2000/svg"><path d="m65.89 39a30.31 30.31 0 0 1 -7.7 20.23c-.35.42-.74.82-1.13 1.22-.69.69-1.41 1.36-2.15 2a29.7 29.7 0 0 1 -4.34 3c-.76.44-1.55.85-2.36 1.22a30.45 30.45 0 0 1 -30.06-2.57 30.85 30.85 0 0 1 -5.48-4.84 30.32 30.32 0 0 1 -7.67-20.26c0-.52 0-1.05 0-1.57v-.06a30.29 30.29 0 0 1 7.65-18.59 29.8 29.8 0 0 1 5.42-4.78l.08-.05a4.85 4.85 0 0 1 .5-.34 29 29 0 0 1 3.85-2.16c.55-.26 1.09-.5 1.65-.71a26.79 26.79 0 0 1 3.85-1.28 28.66 28.66 0 0 1 3.95-.73 31.21 31.21 0 0 1 7.47 0 29.94 29.94 0 0 1 4.35.89 31.88 31.88 0 0 1 3.45 1.2c.55.24 1.08.48 1.62.74a28.37 28.37 0 0 1 3.43 2 5.44 5.44 0 0 1 .55.39c.27.17.54.36.8.56.46.33.9.69 1.34 1.05l.43.38a28.12 28.12 0 0 1 2.85 2.82 30.32 30.32 0 0 1 7.65 20.24z" fill="#f6bb42"/><path d="m58.19 16.24v43c-.35.42-.74.82-1.13 1.22-.69.69-1.41 1.36-2.15 2a29.7 29.7 0 0 1 -4.34 3c-.76.44-1.55.85-2.36 1.22a30.45 30.45 0 0 1 -30.06-2.57 30.85 30.85 0 0 1 -5.48-4.84v-43a2.28 2.28 0 0 1 2.33-2.27h41a2.27 2.27 0 0 1 2.19 2.24z" fill="#f2f2f7"/><path d="m58.2 25.86h-45.53v-9.62a2.28 2.28 0 0 1 2.33-2.24h41a2.28 2.28 0 0 1 2.28 2.28z" fill="#ffce54"/><path d="m51.08 8.53a4.42 4.42 0 0 0 -4.42 4.47v1h1.77v-1a2.61 2.61 0 0 1 2.47-2.7 2.57 2.57 0 0 1 2.67 2.57v3.71a2.58 2.58 0 0 1 -1.91 2.49.88.88 0 0 0 -.66.85.88.88 0 0 0 1.1.86 4.34 4.34 0 0 0 3.24-4.2v-3.71a4.34 4.34 0 0 0 -4.26-4.34z"/><path d="m40.87 8.53a4.42 4.42 0 0 0 -4.41 4.47v1h1.77v-1a2.61 2.61 0 0 1 2.47-2.7 2.58 2.58 0 0 1 2.67 2.57v3.71a2.58 2.58 0 0 1 -1.91 2.49.88.88 0 0 0 -.66.85.88.88 0 0 0 1.1.86 4.36 4.36 0 0 0 3.24-4.2v-3.71a4.35 4.35 0 0 0 -4.27-4.34z"/><path d="m30.67 8.53a4.41 4.41 0 0 0 -4.41 4.47v1h1.74v-1a2.61 2.61 0 0 1 2.5-2.7 2.58 2.58 0 0 1 2.67 2.57v3.71a2.58 2.58 0 0 1 -1.91 2.49.88.88 0 0 0 -.66.85.88.88 0 0 0 1.1.86 4.36 4.36 0 0 0 3.24-4.2v-3.71a4.35 4.35 0 0 0 -4.27-4.34z"/><path d="m20.47 8.53a4.42 4.42 0 0 0 -4.42 4.47v1h1.77v-1a2.61 2.61 0 0 1 2.48-2.7 2.58 2.58 0 0 1 2.7 2.57v3.71a2.59 2.59 0 0 1 -1.91 2.49.88.88 0 0 0 -.66.85.88.88 0 0 0 1.1.86 4.36 4.36 0 0 0 3.24-4.2v-3.71a4.35 4.35 0 0 0 -4.3-4.34z"/><circle cx="35.44" cy="48.01" fill="#4d4d4d" r="11.99"/><path d="m47.43 48a12 12 0 0 1 -12 12v-24a12 12 0 0 1 12 12z"/><path d="m41.68 45.52-5.59 5.59-1.21 1.21a1.44 1.44 0 0 1 -1 .42 1.48 1.48 0 0 1 -1-.42l-2.6-2.6a1.46 1.46 0 0 1 2.07-2.06l1.56 1.56 5.76-5.76a1.46 1.46 0 0 1 2.07 2.06zm0 0" fill="#fff"/></svg>